# xmcd
#
# Track frame offsets:
#	182
#	18570
#	34532
#	53095
#	72207
#	87695
#	106482
#	125607
#	147232
#	161245
#	180170
#	199995
#
# Disc length: 2903 seconds
#
# Revision: 0
# Processed by: cddbd v1.4PL0 Copyright (c) Steve Scherf et al.
# Submitted via: dBpowerAMP V4.0
#
DISCID=a90b550c
DTITLE=Gaucha - 18º Califórnia da Canção Nativa de Uruguaiana RS - 18º Califórnia da Canção Nativa de Uruguaiana RS
DYEAR=1900
DGENRE=
TTITLE0=Toada de Mango
TTITLE1=Flor de Campeira
TTITLE2=No KM 13 da Pampa
TTITLE3=Resgate à Liberdade
TTITLE4=Coração. Cavalo Branco
TTITLE5=Caixa de Segredos
TTITLE6=Solfejos de Prata
TTITLE7=Cavalinho
TTITLE8=Mãos Campeiras
TTITLE9=Crioulo de Maio
TTITLE10=Tropas de Maio
TTITLE11=Testigo
EXTD=
EXTT0=
EXTT1=
EXTT2=
EXTT3=
EXTT4=
EXTT5=
EXTT6=
EXTT7=
EXTT8=
EXTT9=
EXTT10=
EXTT11=
PLAYORDER=
